<?xml version="1.0" standalone="no"?>
<!DOCTYPE svg PUBLIC "-//W3C//DTD SVG 20010904//EN"
 "http://www.w3.org/TR/2001/REC-SVG-20010904/DTD/svg10.dtd">
<svg version="1.0" xmlns="http://www.w3.org/2000/svg"
 width="220.000000pt" height="220.000000pt" viewBox="0 0 220.000000 220.000000"
 preserveAspectRatio="xMidYMid meet">
<metadata>
Created by potrace 1.14, written by Peter Selinger 2001-2017
</metadata>
<g transform="translate(0.000000,220.000000) scale(0.100000,-0.100000)"
fill="#000000" stroke="none">
<path d="M0 1495 c0 -54 0 -55 30 -55 l30 0 0 -150 c0 -126 2 -150 15 -151 46
-3 61 -2 70 3 6 4 10 66 9 150 l0 143 30 5 c27 5 29 8 29 45 0 22 -1 46 -2 53
-1 9 -29 12 -106 12 l-105 0 0 -55z"/>
<path d="M282 1343 l3 -207 75 1 c41 1 80 2 86 2 16 1 23 81 8 95 -6 6 -27 11
-47 10 -34 -2 -37 0 -37 25 0 26 2 28 45 26 l45 -2 0 53 0 53 -41 -3 c-34 -3
-42 0 -49 18 -11 30 -4 36 45 36 l43 0 4 50 3 50 -93 0 -92 0 2 -207z"/>
<path d="M540 1345 c1 -173 3 -205 15 -206 73 -5 70 -7 73 51 l3 55 27 -55 27
-55 44 3 c25 1 46 4 48 6 2 2 -12 35 -32 74 -37 75 -41 92 -25 92 32 0 53 115
31 172 -21 54 -48 68 -133 68 l-78 0 0 -205z m128 69 c3 -28 -21 -65 -34 -52
-5 6 -8 40 -5 71 2 32 36 16 39 -19z"/>
<path d="M839 1548 c-6 -13 -3 -396 3 -404 4 -6 18 -10 30 -8 13 1 31 3 40 3
15 1 18 10 17 54 -1 28 -1 75 0 102 l2 50 49 -102 c27 -57 54 -103 60 -104 5
-1 19 -1 30 -1 53 0 50 -13 50 207 l0 205 -45 0 -45 0 0 -107 0 -108 -52 108
-51 107 -44 0 c-23 0 -44 -1 -44 -2z"/>
<path d="M1261 1513 c-5 -21 -24 -99 -41 -173 -18 -74 -36 -150 -40 -167 -8
-30 -6 -33 16 -34 13 -1 32 -2 42 -3 11 -1 21 11 28 34 11 33 15 35 57 38 44
3 47 1 53 -25 3 -15 7 -33 9 -38 1 -6 22 -9 47 -7 l44 4 -41 161 c-22 89 -41
164 -42 167 -1 3 -4 22 -8 43 l-7 37 -54 0 c-53 0 -53 0 -63 -37z m73 -142 c3
-22 9 -46 12 -55 5 -12 0 -16 -21 -16 -27 0 -28 1 -20 48 4 26 7 52 8 59 1 25
15 2 21 -36z"/>
<path d="M1548 1518 c0 -18 -2 -37 -3 -43 -1 -5 -5 -41 -9 -80 -5 -38 -10 -81
-11 -95 -14 -114 -16 -160 -6 -161 6 -1 22 -1 36 -1 38 0 42 1 42 15 5 74 13
160 16 164 3 2 12 -37 22 -86 15 -79 20 -90 40 -94 35 -6 41 2 55 78 7 39 16
79 21 90 7 18 8 18 9 -5 1 -14 3 -34 5 -44 2 -10 5 -40 6 -65 3 -49 19 -62 67
-53 22 4 23 7 17 76 -3 39 -8 85 -10 101 -3 17 -7 53 -9 82 -3 29 -8 75 -12
103 l-7 50 -43 0 c-24 0 -44 -3 -45 -7 -1 -12 -5 -32 -25 -118 l-18 -80 -18
80 c-10 44 -20 90 -23 103 -5 19 -12 22 -50 22 -44 0 -45 -1 -47 -32z"/>
<path d="M1997 1543 c-3 -5 -25 -89 -50 -188 -25 -99 -48 -188 -52 -197 -7
-18 19 -26 68 -19 20 2 27 9 27 26 0 32 23 47 66 43 33 -3 39 -7 48 -38 10
-33 14 -35 53 -35 37 0 42 3 39 20 -2 11 -20 85 -39 165 -47 196 -51 214 -49
223 1 4 -22 7 -52 7 -30 0 -57 -3 -59 -7z m66 -185 l15 -58 -27 0 -28 0 10 60
c5 33 11 59 13 58 1 -2 9 -29 17 -60z"/>
<path d="M391 1044 c-65 -27 -99 -100 -96 -204 5 -156 133 -240 235 -153 44
36 62 86 62 166 -1 148 -94 236 -201 191z m80 -106 c16 -29 16 -136 0 -166
-30 -56 -70 -7 -66 82 3 95 37 137 66 84z"/>
<path d="M1911 1047 c-27 -13 -59 -61 -66 -98 -8 -43 13 -93 50 -118 35 -23
51 -53 40 -71 -10 -16 -56 -12 -76 6 -17 16 -18 14 -16 -42 l2 -59 46 -9 c36
-7 53 -5 83 9 89 42 96 147 16 223 -22 20 -40 45 -40 55 0 21 32 23 63 2 23
-14 23 -14 22 40 0 51 -2 55 -29 65 -38 13 -66 12 -95 -3z"/>
<path d="M0 856 l0 -194 28 -3 c69 -10 72 -6 72 89 l1 87 33 -85 34 -85 56 -3
55 -3 -44 101 -45 101 39 95 40 94 -54 0 -53 0 -31 -82 -30 -83 0 83 -1 82
-50 0 -50 0 0 -194z"/>
<path d="M640 855 l0 -195 49 0 50 0 0 68 c-1 158 -2 156 33 62 16 -47 33 -95
35 -107 5 -20 12 -23 54 -23 27 0 49 3 50 8 1 9 1 353 0 370 -1 8 -17 12 -47
12 l-45 0 3 -95 c2 -52 0 -95 -3 -95 -3 0 -23 43 -43 95 l-38 95 -49 0 -49 0
0 -195z"/>
<path d="M950 1043 c0 -5 14 -66 31 -138 17 -71 36 -155 43 -185 12 -49 16
-56 42 -60 16 -3 40 -4 54 -2 23 3 28 15 73 180 27 97 51 185 54 195 4 16 -1
18 -54 15 l-58 -3 -19 -113 c-11 -61 -20 -111 -22 -110 -1 2 -5 26 -8 53 -4
28 -12 78 -17 113 l-11 62 -54 0 c-30 0 -54 -3 -54 -7z"/>
<path d="M1284 855 l0 -195 26 -1 c68 -2 152 1 160 6 4 3 8 22 7 43 -2 36 -3
37 -46 42 -41 5 -45 8 -46 33 -2 25 1 27 37 27 21 0 39 5 39 10 1 6 2 25 3 43
1 30 -1 32 -39 37 -35 4 -40 8 -40 30 0 22 5 26 45 30 l45 5 1 43 2 42 -97 0
-97 0 0 -195z"/>
<path d="M1530 856 c0 -194 0 -195 23 -198 12 -2 34 -2 49 0 26 4 26 5 25 83
-1 43 0 79 3 79 3 0 18 -34 34 -76 16 -42 35 -78 41 -81 7 -2 33 -3 58 -1 l45
3 -45 99 -45 98 40 94 40 94 -53 0 -53 0 -28 -71 c-15 -38 -30 -72 -33 -74 -4
-2 -5 30 -4 71 l2 74 -50 0 -49 0 0 -194z"/>
<path d="M2095 858 l0 -193 51 -3 50 -3 0 196 0 195 -51 0 -50 0 0 -192z"/>
</g>
</svg>
